<svg xmlns="http://www.w3.org/2000/svg" viewBox="0 0 350 237.28"><defs><style>.cls-1{fill:#54c7e7;}</style></defs><g id="Layer_1" data-name="Layer 1"><g id="Group_4" data-name="Group 4"><g id="Mail_icon" data-name="Mail icon"><g id="Mail_icon-2" data-name="Mail icon-2"><path id="Path_1" data-name="Path 1" class="cls-1" d="M181.51,156.7a12.79,12.79,0,0,1-13,0L5.48,60.44A3.62,3.62,0,0,0,0,63.57v146.2a27.51,27.51,0,0,0,27.51,27.51h295A27.51,27.51,0,0,0,350,209.79V63.57a3.64,3.64,0,0,0-5.48-3.13Z"/><path id="Path_2" data-name="Path 2" class="cls-1" d="M182.24,126.52l165.84-98a3.56,3.56,0,0,0,1.78-3.37A27.57,27.57,0,0,0,322.45,0h-295A27.55,27.55,0,0,0,.08,25.19a3.59,3.59,0,0,0,1.77,3.37l165.84,98A14.22,14.22,0,0,0,182.24,126.52Z"/></g></g></g></g></svg>