<svg xmlns="http://www.w3.org/2000/svg" viewBox="0 0 350 350"><defs><style>.cls-1{fill:#c6eaf6;}.cls-2{fill:#1a428a;}.cls-3{fill:#54c8e8;}</style></defs><g id="Layer_1" data-name="Layer 1"><circle class="cls-1" cx="175" cy="175" r="175"/><g id="NoBackground_Icon04"><path class="cls-2" d="M172.63,110.36a5,5,0,0,0-3.83-4,4.9,4.9,0,0,0-4.39,1.15,7.34,7.34,0,0,1-4.76,1.61,7,7,0,0,1-5.38-2.24,24.56,24.56,0,0,0-1.18-4.32l.06.06A7,7,0,0,1,156.67,98a7.44,7.44,0,0,1,5-1A5.08,5.08,0,0,0,166,95.77a5.14,5.14,0,0,0,1.28-5.39,5,5,0,0,0-7.22-2.64,5.09,5.09,0,0,0-2.21,2.74,7.56,7.56,0,0,1-3.33,3.79,7.09,7.09,0,0,1-5.76.75,26.1,26.1,0,0,0-3.11-3.11,6.92,6.92,0,0,1,.75-5.79,7.33,7.33,0,0,1,3.86-3.36,5,5,0,1,0-6-7.19,4.8,4.8,0,0,0-.56,3.49,7.22,7.22,0,0,1-1,4.91A7,7,0,0,1,138,87.52a24.74,24.74,0,0,0-4.24-1.12A7,7,0,0,1,131.52,81a7.4,7.4,0,0,1,1.62-4.77,5,5,0,1,0-8.77-3.29,4.92,4.92,0,0,0,1.21,3.23h0A7.3,7.3,0,0,1,127.23,81,7,7,0,0,1,125,86.37h.15a25.15,25.15,0,0,0-4.38,1.15A6.9,6.9,0,0,1,116.12,84a7.34,7.34,0,0,1-1-5,4.82,4.82,0,0,0-1.21-4.35,5,5,0,0,0-8,5.91,4.88,4.88,0,0,0,2.65,2.18,7.41,7.41,0,0,1,3.86,3.36,7,7,0,0,1,.74,5.79A26.86,26.86,0,0,0,110,95a7.17,7.17,0,0,1-5.79-.75,7.47,7.47,0,0,1-3.29-3.79A5,5,0,1,0,97.11,97a7.34,7.34,0,0,1,5,1,7,7,0,0,1,3.54,4.63l.07-.06a22.23,22.23,0,0,0-1.19,4.32,7,7,0,0,1-5.38,2.24,7.34,7.34,0,0,1-4.76-1.61A4.9,4.9,0,0,0,90,106.35a5,5,0,0,0,1.09,9.89,5,5,0,0,0,3.24-1.18v0a7.27,7.27,0,0,1,4.82-1.68,7,7,0,0,1,5.38,2.24,26.29,26.29,0,0,0,1.15,4.26,7,7,0,0,1-3.54,4.61,7.34,7.34,0,0,1-5,1,4.92,4.92,0,0,0-4.36,1.19,5,5,0,0,0,5.92,8,4.78,4.78,0,0,0,2.17-2.64,7.49,7.49,0,0,1,3.36-3.83,7.09,7.09,0,0,1,5.76-.78,26.2,26.2,0,0,0,3.14,3.18,6.94,6.94,0,0,1-.74,5.72,7.62,7.62,0,0,1-3.8,3.33,5,5,0,0,0-3.17,3.21,5.11,5.11,0,0,0,1.55,5.35,5,5,0,0,0,8.16-4.73,7.5,7.5,0,0,1,1-5,7,7,0,0,1,4.64-3.52,23.31,23.31,0,0,0,4.23,1.12,7,7,0,0,1,2.24,5.39,7.27,7.27,0,0,1-1.68,4.82h0a5,5,0,0,0-1.09,4.36,5,5,0,0,0,4,3.79,5,5,0,0,0,5.85-4.91,4.91,4.91,0,0,0-1.25-3.3,7.35,7.35,0,0,1-1.62-4.76,7,7,0,0,1,2.21-5.35A26.89,26.89,0,0,0,138,135a6.89,6.89,0,0,1,4.6,3.52,7.48,7.48,0,0,1,1,5,5,5,0,0,0,6.63,5.6,5,5,0,0,0,2.61-7.22,4.93,4.93,0,0,0-2.74-2.21,7.5,7.5,0,0,1-3.76-3.33,7,7,0,0,1-.75-5.72,27.75,27.75,0,0,0,3.14-3.18,7.09,7.09,0,0,1,5.76.78,7.34,7.34,0,0,1,3.33,3.86l0,0a5,5,0,0,0,8.52,1.52,5,5,0,0,0-1.33-7.53,4.8,4.8,0,0,0-3.49-.56,7.25,7.25,0,0,1-4.91-1,7,7,0,0,1-3.55-4.61,25.3,25.3,0,0,0,1.15-4.26,7,7,0,0,1,5.38-2.24,7.32,7.32,0,0,1,4.83,1.68v0a5,5,0,0,0,8.15-4.7Zm-54.3,12.35a4.4,4.4,0,1,1,1.59-6A4.41,4.41,0,0,1,118.33,122.71Zm1.59-16.92a4.39,4.39,0,1,1-7.6-4.39,4.39,4.39,0,1,1,7.6,4.39Zm9.46-14.26A4.39,4.39,0,1,1,125,95.92,4.38,4.38,0,0,1,129.38,91.53Zm0,39.43a4.41,4.41,0,1,1,4.38-4.39A4.4,4.4,0,0,1,129.38,131Zm0-14.28a5.54,5.54,0,1,1,5.53-5.54A5.53,5.53,0,0,1,129.38,116.68Zm17.08,4.41a4.39,4.39,0,1,1-1.62-6A4.41,4.41,0,0,1,146.46,121.09Zm-1.62-13.69a4.4,4.4,0,1,1,1.62-6A4.43,4.43,0,0,1,144.84,107.4Z"/></g><polygon class="cls-3" points="114.42 210.76 160.34 210.76 122.07 249.34 109.64 251.57 97.36 241.47 98 227.33 114.42 210.76"/><path class="cls-2" d="M206.9,204a2.55,2.55,0,0,1,.68-2.34c5-5.08,8.82-11.45,12.88-18.2,4.76-7.89,9.67-16,16.77-22.52,7.27-6.62,17-7.46,22.71-2l0,0,.06.06h0l0,0,0,0,0,0c5.59,5.6,4.93,15.35-1.55,22.74-6.34,7.23-14.4,12.3-22.19,17.2-6.67,4.2-13,8.16-17.95,13.23a2.58,2.58,0,1,1-3.68-3.61c5.4-5.51,12.25-9.82,18.88-14,7.48-4.7,15.22-9.57,21.06-16.23,4.67-5.33,5.42-12.08,1.75-15.72l-.05-.05c-3.7-3.6-10.44-2.73-15.69,2.05-6.55,6-11.26,13.79-15.83,21.37-4,6.7-8.21,13.63-13.61,19.14a2.59,2.59,0,0,1-3.65,0A2.55,2.55,0,0,1,206.9,204Z"/><path class="cls-2" d="M139.37,276.06a7.79,7.79,0,0,1-.17-1.53,7.53,7.53,0,0,1,2.18-5.4l66.2-67.48a2.58,2.58,0,0,1,3.65,0l7.18,7a2.6,2.6,0,0,1,.77,1.82,2.57,2.57,0,0,1-.74,1.83l-66.2,67.48a7.61,7.61,0,0,1-12.87-3.72Zm70.09-69-64.4,65.64h0a2.51,2.51,0,0,0-.7,1.74,2.44,2.44,0,0,0,.74,1.72,2.44,2.44,0,0,0,3.45,0L213,210.53Z"/><path class="cls-2" d="M100.07,249.77l-1-1a19.14,19.14,0,0,1,0-27.05l90.43-90.44a3.29,3.29,0,1,1,4.65,4.65l-90.44,90.43a12.58,12.58,0,0,0,0,17.76l1,1a12.55,12.55,0,0,0,17.75,0l90.44-90.44a3.28,3.28,0,1,1,4.64,4.65l-90.43,90.44A19.16,19.16,0,0,1,100.07,249.77Z"/><path class="cls-2" d="M215.8,162.22l-29.16-29.15a6.51,6.51,0,0,1,0-9.17l17-17a6.49,6.49,0,0,1,9.17,0L242,136a6.48,6.48,0,0,1,0,9.16l-17,17A6.49,6.49,0,0,1,215.8,162.22Zm-24.45-33.74,29,29L237.3,140.6l-29-29Z"/><path class="cls-2" d="M202.64,133.75a3.3,3.3,0,0,1,0-4.65l6.25-6.24a3.28,3.28,0,0,1,4.64,4.64l-6.24,6.25A3.3,3.3,0,0,1,202.64,133.75Z"/><path class="cls-2" d="M200,172.21l-23.38-23.37a3.29,3.29,0,0,1,4.65-4.65l23.37,23.38a3.28,3.28,0,0,1-4.64,4.64Z"/><path class="cls-2" d="M161.33,214H115.18a3.29,3.29,0,0,1,0-6.57h46.15a3.29,3.29,0,1,1,0,6.57Z"/></g></svg>