<svg xmlns="http://www.w3.org/2000/svg" viewBox="0 0 350 350"><defs><style>.cls-1{fill:#c6eaf6;}.cls-2{fill:#54c8e8;}.cls-3{fill:#1a428a;}</style></defs><g id="Layer_1" data-name="Layer 1"><circle class="cls-1" cx="175" cy="175" r="175"/><polygon class="cls-2" points="84.89 217.4 134.91 215.92 102.87 249 91.92 257.5 78.02 257.5 68.21 242.95 72.47 230.36 84.89 217.4"/><path class="cls-3" d="M265.24,96.2c-32.46-1-63.18-16.48-74.76-22.31L188.75,73a10.45,10.45,0,0,0-9.53,0c-.54.26-1.1.56-1.74.88-11.58,5.83-42.3,21.29-74.75,22.31a7.18,7.18,0,0,0-7,7.16s0,54.56,0,68.26a3.09,3.09,0,0,0,3.1,3.09h0a3.1,3.1,0,0,0,3.1-3.1c0-13.72,0-68.25,0-68.25a1,1,0,0,1,1-1c33.84-1,65.47-17,77.37-23,.61-.32,1.2-.61,1.7-.85a4.41,4.41,0,0,1,4,0c.5.24,1.09.53,1.7.85,11.9,6,43.53,21.94,77.37,23a1,1,0,0,1,1,1v70.1a76.66,76.66,0,0,1-31.39,61.74c-26.33,19.22-43,31.12-48.35,34.42a4.31,4.31,0,0,1-4.68,0c-2.18-1.36-6.26-4.15-12.14-8.3a37.83,37.83,0,0,0-2.29,6c5.32,3.75,9,6.31,11.15,7.61a10.67,10.67,0,0,0,11.24,0c5.48-3.43,21.88-15.09,48.72-34.69a82.85,82.85,0,0,0,33.94-66.74v-70.1A7.18,7.18,0,0,0,265.24,96.2Z"/><path class="cls-3" d="M257,108.1c-32.11-3-60.84-17.47-71.67-22.9a2.84,2.84,0,0,0-1.39-.35,2.78,2.78,0,0,0-1.38.35c-10.84,5.43-39.57,19.91-71.67,22.9a3.12,3.12,0,0,0-2.83,3.08v48a3.1,3.1,0,0,0,3.11,3.1h0a3.1,3.1,0,0,0,3.1-3.1V114c30.83-3.49,58-16.69,69.67-22.55,11.69,5.86,38.84,19.06,69.67,22.55v59.48a64.07,64.07,0,0,1-26.31,51.75c-25.4,18.54-37.56,27.13-43.36,31.1-1.84-1.25-4.31-3-7.64-5.32a46.82,46.82,0,0,0-3.75,4.92c4.68,3.3,7.69,5.41,9.66,6.71a3.09,3.09,0,0,0,3.46,0c5-3.38,17-11.71,45.31-32.43a70.44,70.44,0,0,0,28.84-56.73V111.18A3.12,3.12,0,0,0,257,108.1Z"/><path class="cls-3" d="M177.27,210.75a2.54,2.54,0,0,1,.67-2.31c4.89-5,8.67-11.25,12.66-17.88,4.67-7.75,9.5-15.77,16.48-22.13,7.14-6.5,16.71-7.33,22.31-2l.05,0,.05,0h0l0,0,0,0,0,0c5.49,5.5,4.85,15.08-1.52,22.35-6.23,7.1-14.15,12.08-21.81,16.9-6.55,4.12-12.74,8-17.64,13a2.54,2.54,0,1,1-3.62-3.55c5.31-5.41,12-9.65,18.56-13.74,7.35-4.63,14.95-9.41,20.69-16,4.59-5.24,5.33-11.88,1.72-15.45l0-.05c-3.64-3.54-10.27-2.68-15.42,2-6.44,5.87-11.07,13.56-15.56,21-4,6.59-8.07,13.4-13.38,18.81a2.54,2.54,0,0,1-3.59,0A2.58,2.58,0,0,1,177.27,210.75Z"/><path class="cls-3" d="M110.91,281.57a7.49,7.49,0,0,1-.17-1.5,7.41,7.41,0,0,1,2.14-5.31l65.06-66.32a2.54,2.54,0,0,1,3.59,0l7.05,6.92a2.52,2.52,0,0,1,0,3.58l-65.05,66.32a7.48,7.48,0,0,1-12.65-3.66Zm68.88-67.76-63.29,64.5h0a2.41,2.41,0,0,0,0,3.4,2.39,2.39,0,0,0,1.7.69,2.44,2.44,0,0,0,1.69-.72l63.29-64.51Z"/><path class="cls-3" d="M72.29,255.73l-1-.95a18.81,18.81,0,0,1,0-26.58l88.88-88.88a3.23,3.23,0,0,1,4.56,4.57L75.9,232.76a12.35,12.35,0,0,0,0,17.45l.95,1a12.35,12.35,0,0,0,17.45,0l88.88-88.88a3.23,3.23,0,1,1,4.56,4.57L98.87,255.73A18.81,18.81,0,0,1,72.29,255.73Z"/><path class="cls-3" d="M186,169.7l-28.65-28.65a6.37,6.37,0,0,1,0-9l16.74-16.74a6.37,6.37,0,0,1,9,0L211.77,144a6.39,6.39,0,0,1,0,9L195,169.7A6.39,6.39,0,0,1,186,169.7Zm-24-33.16,28.53,28.53,16.62-16.62-28.53-28.53Z"/><path class="cls-3" d="M173.08,141.72a3.24,3.24,0,0,1,0-4.57l6.14-6.14a3.23,3.23,0,0,1,4.57,4.57l-6.14,6.14A3.24,3.24,0,0,1,173.08,141.72Z"/><path class="cls-3" d="M170.52,179.52l-23-23a3.23,3.23,0,1,1,4.56-4.57l23,23a3.23,3.23,0,1,1-4.56,4.57Z"/><path class="cls-3" d="M132,220.62H88.12a3.23,3.23,0,1,1,0-6.45H132a3.23,3.23,0,1,1,0,6.45Z"/></g></svg>