<svg xmlns="http://www.w3.org/2000/svg" viewBox="0 0 340.16 350"><defs><style>.cls-1{fill:#54c7e7;}</style></defs><g id="Layer_1" data-name="Layer 1"><g id="Group_8" data-name="Group 8"><g id="Phone_icon" data-name="Phone icon"><path id="Path_3" data-name="Path 3" class="cls-1" d="M244.91,137a89,89,0,0,1,9,39.19,13.38,13.38,0,0,0,13.37,13.38h0a13.37,13.37,0,0,0,13.37-13.37,116.91,116.91,0,0,0-54.93-99A117.24,117.24,0,0,0,165.35,59.5a13.39,13.39,0,0,0-.44,26.78H165A89.58,89.58,0,0,1,244.91,137Z"/><path id="Path_4" data-name="Path 4" class="cls-1" d="M322.55,99.46A176.16,176.16,0,0,0,165.32,0h-.12a13.37,13.37,0,0,0-.12,26.73h0a149.62,149.62,0,0,1,148.35,149.5,13.37,13.37,0,0,0,13.35,13.39h0a13.37,13.37,0,0,0,13.37-13.37A174.62,174.62,0,0,0,322.55,99.46Z"/><path id="Path_5" data-name="Path 5" class="cls-1" d="M277.47,238.14a25.24,25.24,0,0,0-18.38-8,25,25,0,0,0-14.21,4.4l-28.42,18.26c-5.72-2.4-25-13.15-68.23-59.45-43.46-46.59-52.65-66.39-54.6-72.15l20.19-27.17a25.27,25.27,0,0,0-1.31-32.77L68.22,13.81a26.08,26.08,0,0,0-39.34,1.34L16.55,30.34A71.3,71.3,0,0,0,0,78.45a145.22,145.22,0,0,0,13.59,55.73,421,421,0,0,0,78,112.1,485.76,485.76,0,0,0,81.52,70.93A163.14,163.14,0,0,0,259.57,350a67.1,67.1,0,0,0,42.26-14l15.93-11.21a26.22,26.22,0,0,0,4.14-39.18Z"/></g></g></g></svg>