<svg xmlns="http://www.w3.org/2000/svg" viewBox="0 0 309.76 350"><defs><style>.cls-1{fill:#fff;}</style></defs><g id="Layer_1" data-name="Layer 1"><path class="cls-1" d="M230.34,40.24H215.49V19.07a19.07,19.07,0,0,0-38.14,0V40.24H132.41V19.07a19.07,19.07,0,1,0-38.13,0V40.24H79.42A79.51,79.51,0,0,0,0,119.66V270.58A79.51,79.51,0,0,0,79.42,350H230.34a79.51,79.51,0,0,0,79.42-79.42V119.66A79.51,79.51,0,0,0,230.34,40.24Zm41.29,230.34a41.34,41.34,0,0,1-41.29,41.29H79.42a41.33,41.33,0,0,1-41.29-41.29V119.66A41.33,41.33,0,0,1,79.42,78.37H94.28V99.55a19.07,19.07,0,0,0,38.13,0V78.37h44.94V99.55a19.07,19.07,0,0,0,38.14,0V78.37h14.85a41.34,41.34,0,0,1,41.29,41.29Z"/><path class="cls-1" d="M217.81,137.34l-79.25,79.25-35-35a19.06,19.06,0,0,0-27,27L125.08,257a19.07,19.07,0,0,0,27,0l92.73-92.73a19.07,19.07,0,1,0-27-27Z"/></g></svg>